
<svg>
	<symbol id="tail-2__ID"  width="49" height="87" viewBox="0 0 49 87" fill="currentColor" xmlns="http://www.w3.org/2000/svg" xmlns:xlink="http://www.w3.org/1999/xlink">
		<path d="M48.5995 28.6121L48.5995 0.121887C46.7573 7.45264 46.0875 16.6162 37.5467 28.6121C29.0059 40.608 14.2688 53.437 5.39307 62.6005C2.7135 65.7661 -1.03784 72.1971 1.37384 78.5949C3.78534 84.9927 14.7712 87.4253 19.4603 87.092L48.5995 87.092L48.5995 28.6121Z" fill="currentColor" fill-opacity="1" fill-rule="evenodd"/>
		<path d="M48.5995 0.121887C46.7573 7.45264 46.0875 16.6162 37.5467 28.6121C29.0059 40.608 14.2688 53.437 5.39307 62.6005C2.7135 65.7661 -1.03784 72.1971 1.37384 78.595C3.78534 84.9928 14.7712 87.4253 19.4603 87.092L48.5995 87.092L48.5995 28.6121L48.5995 0.121887Z" stroke="currentColor" stroke-opacity="1" stroke-width="1"/>
	</symbol>
</svg>
